<svg xmlns="http://www.w3.org/2000/svg">
  <defs>
    <!-- Each icon is defined as a symbol with a unique ID -->
    <symbol id="icon-arrow-back" viewBox="0 -960 960 960">
      <path d="m313-440 224 224-57 56-320-320 320-320 57 56-224 224h487v80H313Z"/>
    </symbol>
    <!-- weight: 600 -->
    <symbol id="icon-arrow-downward" viewBox="0 -960 960 960">
      <path d="M427-819.22v475.13L215.43-555.65 140.78-480 480-140.78 819.22-480l-74.65-75.65L533-344.09v-475.13H427Z"/>
    </symbol>
    <symbol id="icon-arrow-downward-narrow" viewBox="0 -960 960 960">
      <path d="M480-80 200-360l56-56 184 183v-647h80v647l184-184 56 57L480-80Z"/>
    </symbol>
    <symbol id="icon-arrow-forward" viewBox="0 -960 960 960">
      <path d="M647-440H160v-80h487L423-744l57-56 320 320-320 320-57-56 224-224Z"/>
    </symbol>
    <symbol id="icon-arrow-upward" viewBox="0 -960 960 960">
      <path d="M440-160v-487L216-423l-56-57 320-320 320 320-56 57-224-224v487h-80Z"/>
    </symbol>
    <symbol id="icon-arrow-upward-narrow" viewBox="0 -960 960 960">
      <path d="M440-80v-647L256-544l-56-56 280-280 280 280-56 57-184-184v647h-80Z"/>
    </symbol>
    <symbol id="icon-block" viewBox="0 -960 960 960">
      <path d="M480-80q-83 0-156-31.5T197-197q-54-54-85.5-127T80-480q0-83 31.5-156T197-763q54-54 127-85.5T480-880q83 0 156 31.5T763-763q54 54 85.5 127T880-480q0 83-31.5 156T763-197q-54 54-127 85.5T480-80Zm0-80q54 0 104-17.5t92-50.5L228-676q-33 42-50.5 92T160-480q0 134 93 227t227 93Zm252-124q33-42 50.5-92T800-480q0-134-93-227t-227-93q-54 0-104 17.5T284-732l448 448Z"/>
    </symbol>
    <symbol id="icon-bluesky" viewBox="0 0 600 530">
      <path
        d="m135.72 44.03c66.496 49.921 138.02 151.14 164.28 205.46 26.262-54.316 97.782-155.54 164.28-205.46 47.98-36.021 125.72-63.892 125.72 24.795 0 17.712-10.155 148.79-16.111 170.07-20.703 73.984-96.144 92.854-163.25 81.433 117.3 19.964 147.14 86.092 82.697 152.22-122.39 125.59-175.91-31.511-189.63-71.766-2.514-7.3797-3.6904-10.832-3.7077-7.8964-0.0174-2.9357-1.1937 0.51669-3.7077 7.8964-13.714 40.255-67.233 197.36-189.63 71.766-64.444-66.128-34.605-132.26 82.697-152.22-67.108 11.421-142.55-7.4491-163.25-81.433-5.9562-21.282-16.111-152.36-16.111-170.07 0-88.687 77.742-60.816 125.72-24.795z"
        fill="#1185fe"
      />
    </symbol>
    <symbol id="icon-cancel" viewBox="0 -960 960 960">
      <path d="m336-280 144-144 144 144 56-56-144-144 144-144-56-56-144 144-144-144-56 56 144 144-144 144 56 56ZM480-80q-83 0-156-31.5T197-197q-54-54-85.5-127T80-480q0-83 31.5-156T197-763q54-54 127-85.5T480-880q83 0 156 31.5T763-763q54 54 85.5 127T880-480q0 83-31.5 156T763-197q-54 54-127 85.5T480-80Z"/>
    </symbol>
    <symbol id="icon-check-box" viewBox="0 -960 960 960">
      <path d="m424-312 282-282-56-56-226 226-114-114-56 56 170 170ZM200-120q-33 0-56.5-23.5T120-200v-560q0-33 23.5-56.5T200-840h560q33 0 56.5 23.5T840-760v560q0 33-23.5 56.5T760-120H200Z"/>
    </symbol>
    <symbol id="icon-check-box-outline-blank" viewBox="0 -960 960 960">
      <path d="M200-120q-33 0-56.5-23.5T120-200v-560q0-33 23.5-56.5T200-840h560q33 0 56.5 23.5T840-760v560q0 33-23.5 56.5T760-120H200Zm0-80h560v-560H200v560Z"/>
    </symbol>
    <!-- weight: 300 -->
    <symbol id="icon-chevron-right" viewBox="0 -960 960 960">
      <path d="m517.85-480-184-184L376-706.15 602.15-480 376-253.85 333.85-296l184-184Z"/>
    </symbol>
    <symbol id="icon-close" viewBox="0 -960 960 960" ><path d="m256-200-56-56 224-224-224-224 56-56 224 224 224-224 56 56-224 224 224 224-56 56-224-224-224 224Z"/></symbol>
    <symbol id="icon-collapse-content" viewBox="0 -960 960 960">
      <path d="M440-440v240h-80v-160H200v-80h240Zm160-320v160h160v80H520v-240h80Z"/>
    </symbol>
    <symbol id="icon-keyboard-double-arrow-down" viewBox="0 -960 960 960"><path d="M480-200 240-440l56-56 184 183 184-183 56 56-240 240Zm0-240L240-680l56-56 184 183 184-183 56 56-240 240Z"/></symbol>
    <symbol id="icon-keyboard-double-arrow-up"  viewBox="0 -960 960 960"><path d="m296-224-56-56 240-240 240 240-56 56-184-183-184 183Zm0-240-56-56 240-240 240 240-56 56-184-183-184 183Z"/></symbol>
    <symbol id="icon-download" viewBox="0 -960 960 960">
      <path d="M480-320 280-520l56-58 104 104v-326h80v326l104-104 56 58-200 200ZM240-160q-33 0-56.5-23.5T160-240v-120h80v120h480v-120h80v120q0 33-23.5 56.5T720-160H240Z"/>
    </symbol>
    <!-- weight: 500, opsz: 20 -->
    <symbol id="icon-expand-content" viewBox="0 -960 960 960">
      <path d="M234.5-234.5v-251h83v168h168v83h-251Zm408-240v-168h-168v-83h251v251h-83Z"/>
    </symbol>
    <symbol id="icon-image" viewBox="0 -960 960 960">
      <path d="M200-120q-33 0-56.5-23.5T120-200v-560q0-33 23.5-56.5T200-840h560q33 0 56.5 23.5T840-760v560q0 33-23.5 56.5T760-120H200Zm40-160h480L570-480 450-320l-90-120-120 160Z"/>
    </symbol>
    <symbol id="icon-info" viewBox="0 -960 960 960">
      <path d="M440-280h80v-240h-80v240Zm40-320q17 0 28.5-11.5T520-640q0-17-11.5-28.5T480-680q-17 0-28.5 11.5T440-640q0 17 11.5 28.5T480-600Zm0 520q-83 0-156-31.5T197-197q-54-54-85.5-127T80-480q0-83 31.5-156T197-763q54-54 127-85.5T480-880q83 0 156 31.5T763-763q54 54 85.5 127T880-480q0 83-31.5 156T763-197q-54 54-127 85.5T480-80Z"/>
    </symbol>
    <symbol id="icon-info-i" viewBox="0 -960 960 960">
      <path d="M480-680q-33 0-56.5-23.5T400-760q0-33 23.5-56.5T480-840q33 0 56.5 23.5T560-760q0 33-23.5 56.5T480-680Zm-60 560v-480h120v480H420Z"/>
    </symbol>
    <symbol id="icon-linkedin" viewBox="0 0 32 32">
      <path
        fill="#0077b5"
        style="fill: var(--color1, #0077b5)"
        d="M27.263 27.269h-4.739v-7.425c0-1.771-0.036-4.049-2.469-4.049-2.471 0-2.848 1.927-2.848 3.919v7.556h-4.739v-15.269h4.552v2.081h0.061c0.636-1.2 2.183-2.467 4.493-2.467 4.801 0 5.689 3.16 5.689 7.273v8.381zM7.116 9.911c-1.525 0-2.751-1.235-2.751-2.753 0-1.517 1.227-2.751 2.751-2.751 1.52 0 2.752 1.233 2.752 2.751 0 1.519-1.233 2.753-2.752 2.753zM9.492 27.269h-4.752v-15.269h4.752v15.269zM29.633 0h-27.272c-1.305 0-2.361 1.032-2.361 2.305v27.389c0 1.275 1.056 2.305 2.361 2.305h27.268c1.304 0 2.371-1.031 2.371-2.305v-27.389c0-1.273-1.067-2.305-2.371-2.305h0.004z"
      ></path>
    </symbol>
    <symbol id="icon-menu" viewBox="0 -960 960 960">
      <path d="M120-240v-80h720v80H120Zm0-200v-80h720v80H120Zm0-200v-80h720v80H120Z"/>
    </symbol>
    <symbol id="icon-open-in-new" viewBox="0 -960 960 960">
      <path d="M200-120q-33 0-56.5-23.5T120-200v-560q0-33 23.5-56.5T200-840h280v80H200v560h560v-280h80v280q0 33-23.5 56.5T760-120H200Zm188-212-56-56 372-372H560v-80h280v280h-80v-144L388-332Z"/>
    </symbol>
    <symbol id="icon-radio-button-checked" viewBox="0 -960 960 960">
      <path d="M480-280q83 0 141.5-58.5T680-480q0-83-58.5-141.5T480-680q-83 0-141.5 58.5T280-480q0 83 58.5 141.5T480-280Zm0 200q-83 0-156-31.5T197-197q-54-54-85.5-127T80-480q0-83 31.5-156T197-763q54-54 127-85.5T480-880q83 0 156 31.5T763-763q54 54 85.5 127T880-480q0 83-31.5 156T763-197q-54 54-127 85.5T480-80Zm0-80q134 0 227-93t93-227q0-134-93-227t-227-93q-134 0-227 93t-93 227q0 134 93 227t227 93Zm0-320Z"/>
    </symbol>
    <symbol id="icon-radio-button-unchecked" viewBox="0 -960 960 960">
      <path d="M480-80q-83 0-156-31.5T197-197q-54-54-85.5-127T80-480q0-83 31.5-156T197-763q54-54 127-85.5T480-880q83 0 156 31.5T763-763q54 54 85.5 127T880-480q0 83-31.5 156T763-197q-54 54-127 85.5T480-80Zm0-80q134 0 227-93t93-227q0-134-93-227t-227-93q-134 0-227 93t-93 227q0 134 93 227t227 93Zm0-320Z"/>
    </symbol>
    <symbol id="icon-search" viewBox="0 -960 960 960">
      <path d="M784-120 532-372q-30 24-69 38t-83 14q-109 0-184.5-75.5T120-580q0-109 75.5-184.5T380-840q109 0 184.5 75.5T640-580q0 44-14 83t-38 69l252 252-56 56ZM380-400q75 0 127.5-52.5T560-580q0-75-52.5-127.5T380-760q-75 0-127.5 52.5T200-580q0 75 52.5 127.5T380-400Z"/>
    </symbol>
    <symbol id="icon-twitter" viewBox="0 0 32 32">
      <path
        fill="#1da1f2"
        style="fill: var(--color2, #1da1f2)"
        d="M31.939 6.092c-1.18 0.519-2.44 0.872-3.767 1.033 1.352-0.815 2.392-2.099 2.884-3.631-1.268 0.74-2.673 1.279-4.169 1.579-1.195-1.279-2.897-2.079-4.788-2.079-3.623 0-6.56 2.937-6.56 6.556 0 0.52 0.060 1.020 0.169 1.499-5.453-0.257-10.287-2.876-13.521-6.835-0.569 0.963-0.888 2.081-0.888 3.3 0 2.28 1.16 4.284 2.917 5.461-1.076-0.035-2.088-0.331-2.971-0.821v0.081c0 3.18 2.257 5.832 5.261 6.436-0.551 0.148-1.132 0.228-1.728 0.228-0.419 0-0.82-0.040-1.221-0.115 0.841 2.604 3.26 4.503 6.139 4.556-2.24 1.759-5.079 2.807-8.136 2.807-0.52 0-1.039-0.031-1.56-0.089 2.919 1.859 6.357 2.945 10.076 2.945 12.072 0 18.665-9.995 18.665-18.648 0-0.279 0-0.56-0.020-0.84 1.281-0.919 2.4-2.080 3.28-3.397l-0.063-0.027z"
      ></path>
    </symbol>
  </defs>
</svg>
